<svg xmlns="http://www.w3.org/2000/svg" xmlns:xlink="http://www.w3.org/1999/xlink" viewBox="0 0 400.674 91.527"><defs><style>.cls-1{fill:url(#linear-gradient);}.cls-2,.cls-3{fill:#fff;}.cls-3{fill-rule:evenodd;}.cls-4,.cls-7{font-size:87.055px;font-family:BebasNeue-Regular, Bebas Neue;}.cls-5{letter-spacing:0.002em;}.cls-6{fill:url(#linear-gradient-2);}.cls-7{fill:#6969b0;}</style><linearGradient id="linear-gradient" x1="148.632" y1="45.704" x2="6.514" y2="45.704" gradientUnits="userSpaceOnUse"><stop offset="0" stop-color="#6969b0"/><stop offset="1" stop-color="#f26546"/></linearGradient><linearGradient id="linear-gradient-2" x1="265.204" y1="43.062" x2="426.616" y2="53.885" xlink:href="#linear-gradient"/></defs><g id="Layer_2" data-name="Layer 2"><g id="Layer_1-2" data-name="Layer 1"><rect class="cls-1" x="6.514" y="2.499" width="142.119" height="86.409" rx="4.258"/><circle class="cls-2" cx="149.311" cy="11.732" r="5.471"/><circle class="cls-2" cx="149.311" cy="28.849" r="5.471"/><circle class="cls-2" cx="149.311" cy="45.967" r="5.471"/><circle class="cls-2" cx="149.311" cy="63.085" r="5.471"/><circle class="cls-2" cx="149.311" cy="80.202" r="5.471"/><circle class="cls-2" cx="5.471" cy="11.68" r="5.471"/><circle class="cls-2" cx="5.471" cy="28.797" r="5.471"/><circle class="cls-2" cx="5.471" cy="45.915" r="5.471"/><circle class="cls-2" cx="5.471" cy="63.033" r="5.471"/><circle class="cls-2" cx="5.471" cy="80.15" r="5.471"/><g id="logo"><path class="cls-3" d="M68.611,52.95,87.062,40.3l.264-15.81,15.288-11.858V67.179L87.326,78.773V54.267Z"/><path class="cls-3" d="M67.293,13.161v25.3H85.481L67.029,51.369V67.442l-14.5,11.331V24.492Z"/></g><text class="cls-4" transform="translate(158.322 74.116)"><tspan class="cls-5">C</tspan><tspan x="33.516" y="0">oupons</tspan></text><path class="cls-6" d="M165.935,70.948q-3.613-3.916-3.613-11.055V27.16q0-7.139,3.613-11.056t10.49-3.917q6.876,0,10.49,3.917t3.613,11.056V33.6h-9.054V26.551q0-5.659-4.788-5.659T171.9,26.551V60.589q0,5.573,4.788,5.571t4.788-5.571V51.274h9.054v8.619q0,7.137-3.613,11.055t-10.49,3.917Q169.548,74.865,165.935,70.948Z"/><path class="cls-6" d="M199.494,70.861q-3.744-4-3.743-11.317V27.508q0-7.312,3.743-11.317t10.795-4q7.052,0,10.794,4t3.744,11.317V59.544q0,7.313-3.744,11.317t-10.794,4Q203.238,74.865,199.494,70.861Zm15.757-10.708V26.9q0-6-4.962-6.006T205.327,26.9V60.153q0,6.008,4.962,6.007T215.251,60.153Z"/><path class="cls-6" d="M234.577,70.9q-3.657-3.958-3.657-11.36V13.057H240.5V60.24q0,3.135,1.263,4.528a5.384,5.384,0,0,0,7.225,0q1.261-1.392,1.262-4.528V13.057h9.229V59.544q0,7.4-3.657,11.36T245.2,74.865Q238.231,74.865,234.577,70.9Z"/><path class="cls-6" d="M266.265,13.057h14.1q7.138,0,10.708,3.831t3.569,11.229v6.007q0,7.4-3.569,11.23t-10.708,3.831h-4.526V74h-9.576Zm14.1,27.422a4.507,4.507,0,0,0,3.526-1.3q1.176-1.307,1.175-4.441V27.508q0-3.133-1.175-4.44a4.507,4.507,0,0,0-3.526-1.3h-4.526V40.479Z"/><path class="cls-6" d="M302.913,70.861q-3.744-4-3.743-11.317V27.508q0-7.312,3.743-11.317t10.8-4q7.051,0,10.795,4t3.743,11.317V59.544q0,7.313-3.743,11.317t-10.795,4Q306.657,74.865,302.913,70.861ZM318.67,60.153V26.9q0-6-4.962-6.006T308.746,26.9V60.153q0,6.008,4.962,6.007T318.67,60.153Z"/><path class="cls-6" d="M334.687,13.057H346.7l9.315,36.476h.173V13.057h8.533V74h-9.838L343.392,29.511h-.173V74h-8.532Z"/><path class="cls-6" d="M373.774,70.9q-3.57-3.958-3.569-11.36V56.062h9.054V60.24q0,5.922,4.962,5.92a4.664,4.664,0,0,0,3.7-1.436q1.262-1.436,1.263-4.658a12.918,12.918,0,0,0-1.742-6.746A32.246,32.246,0,0,0,381,46.312q-5.921-5.223-8.271-9.446a19.266,19.266,0,0,1-2.35-9.532q0-7.224,3.657-11.187t10.62-3.96q6.876,0,10.4,3.96t3.526,11.361v2.524h-9.054V26.9a7,7,0,0,0-1.219-4.57,4.421,4.421,0,0,0-3.569-1.436q-4.788,0-4.788,5.833a11.5,11.5,0,0,0,1.785,6.18,34.1,34.1,0,0,0,6.485,6.965q6.007,5.225,8.271,9.488a21.079,21.079,0,0,1,2.263,10.012q0,7.488-3.7,11.491t-10.75,4Q377.342,74.865,373.774,70.9Z"/><text class="cls-7" transform="translate(159.362 73.996)"><tspan class="cls-5">C</tspan><tspan x="33.516" y="0">oupons</tspan></text></g></g></svg>